<?xml version="1.0" encoding="utf-8"?>
<!-- Generator: Adobe Illustrator 24.3.0, SVG Export Plug-In . SVG Version: 6.00 Build 0)  -->
<svg version="1.1" id="Laag_1" xmlns="http://www.w3.org/2000/svg" xmlns:xlink="http://www.w3.org/1999/xlink" x="0px" y="0px"
	 viewBox="0 0 127.6 68" style="enable-background:new 0 0 127.6 68;" xml:space="preserve">
<style type="text/css">
	.st0{fill:#DF291B;}
	.st1{fill:#FFFFFF;}
</style>
<g>
	<g>
		<path class="st0" d="M127.6,59.6c0,4.7-3.8,8.4-8.6,8.4H8.6C3.8,68,0,64.3,0,59.6V8.4C0,3.8,3.8,0,8.6,0H119
			c4.8,0,8.6,3.8,8.6,8.4V59.6z"/>
	</g>
</g>
<g>
	<path class="st1" d="M41.7,62h-5v-8.2h5v1.3H38v2h3.5v1.3H38v2.3h3.7V62z"/>
	<path class="st1" d="M46.6,59.1h-3.9v-1.3h3.9V59.1z"/>
	<path class="st1" d="M51.2,62h-0.3c-1.1,0-1.9-0.3-2.3-0.8c-0.2-0.4-0.4-1-0.4-2.1v-5.3h1.3v5.3c0,0.8,0,1.2,0.1,1.4
		c0.1,0.2,0.5,0.3,1.2,0.3h0.3V62z"/>
	<path class="st1" d="M52.2,61.3c-0.2-0.4-0.4-1-0.4-2.1v-0.3c0-1,0.1-1.7,0.4-2.1c0.4-0.6,1.1-0.8,2.3-0.8c1.1,0,1.9,0.3,2.3,0.8
		c0.2,0.4,0.3,1.1,0.3,2.2v0.6h-3.9c0,0.5,0.1,0.8,0.1,1c0.1,0.2,0.5,0.3,1.2,0.3c0.5,0,0.9-0.1,1-0.2c0.1-0.1,0.2-0.2,0.2-0.3
		l1.3,0.2c-0.1,0.6-0.4,1-1,1.3c-0.4,0.2-0.9,0.3-1.6,0.3C53.3,62.1,52.5,61.8,52.2,61.3z M55.7,58.5c0-0.5-0.1-0.8-0.1-1
		c-0.1-0.2-0.5-0.3-1.2-0.3c-0.7,0-1.1,0.1-1.2,0.3c-0.1,0.1-0.1,0.4-0.1,1H55.7z"/>
	<path class="st1" d="M63.3,62H62v-0.5c-0.3,0.4-0.7,0.6-1.3,0.6c-1.1,0-1.9-0.3-2.3-0.8c-0.2-0.4-0.4-1-0.4-2.1v-0.3
		c0-1,0.1-1.7,0.4-2.1c0.4-0.6,1.1-0.8,2.3-0.8s1.9,0.3,2.3,0.8c0.2,0.3,0.3,0.8,0.3,1.5h0V62z M59.5,57.5c-0.1,0.1-0.1,0.6-0.1,1.3
		v0.3c0,0.8,0,1.2,0.1,1.3c0.1,0.2,0.5,0.3,1.2,0.3c0.7,0,1.1-0.1,1.2-0.3C62,60.4,62,60,62,59.3v-0.6c0-0.7,0-1.1-0.1-1.2
		c-0.1-0.2-0.5-0.3-1.2-0.3C60,57.3,59.7,57.3,59.5,57.5z"/>
	<path class="st1" d="M67,57.3c-0.7,0-1.1,0.1-1.2,0.3c-0.1,0.1-0.1,0.6-0.1,1.3V62h-1.3v-3.1c0-1,0.1-1.7,0.4-2.1
		c0.4-0.6,1.1-0.8,2.3-0.8h0.9v1.3H67z"/>
	<path class="st1" d="M73.7,62h-1.3v-3.1c0-0.8,0-1.2-0.1-1.4c-0.1-0.2-0.5-0.3-1.2-0.3c-0.7,0-1.1,0.1-1.2,0.3
		c-0.1,0.1-0.1,0.6-0.1,1.4V62h-1.3v-3.1c0-1,0.1-1.7,0.4-2.1c0.4-0.6,1.1-0.8,2.3-0.8s1.9,0.3,2.3,0.8c0.2,0.4,0.3,1,0.3,2.1V62z"
		/>
	<path class="st1" d="M76.4,55.1h-1.3v-1.3h1.3V55.1z M76.4,62h-1.3v-5.9h1.3V62z"/>
	<path class="st1" d="M83,62h-1.3v-3.1c0-0.8,0-1.2-0.1-1.4c-0.1-0.2-0.5-0.3-1.2-0.3c-0.7,0-1.1,0.1-1.2,0.3
		c-0.1,0.1-0.1,0.6-0.1,1.4V62h-1.3v-3.1c0-1,0.1-1.7,0.4-2.1c0.4-0.6,1.1-0.8,2.3-0.8s1.9,0.3,2.3,0.8c0.2,0.4,0.3,1,0.3,2.1V62z"
		/>
	<path class="st1" d="M84.7,63.8c-0.4-0.3-0.6-0.8-0.7-1.5l1.2-0.1c0.1,0.4,0.1,0.6,0.3,0.7c0.2,0.1,0.5,0.2,1.1,0.2
		c0.7,0,1.1-0.1,1.2-0.2c0.1-0.1,0.1-0.6,0.1-1.3c-0.3,0.2-0.7,0.3-1.3,0.3c-1.1,0-1.9-0.3-2.3-0.8C84.1,60.7,84,60,84,59v-0.1
		c0-1,0.1-1.7,0.4-2.1c0.4-0.6,1.1-0.8,2.3-0.8s1.9,0.3,2.3,0.8c0.2,0.4,0.4,1,0.4,2v2.6c0,1-0.1,1.7-0.4,2.1
		c-0.4,0.6-1.1,0.8-2.3,0.8C85.8,64.3,85.1,64.1,84.7,63.8z M85.5,57.5c-0.1,0.1-0.1,0.6-0.1,1.4V59c0,0.8,0,1.2,0.1,1.4
		c0.1,0.2,0.5,0.3,1.2,0.3c0.7,0,1.1-0.1,1.2-0.3c0.1-0.1,0.1-0.5,0.1-1.2v-0.2c0-0.8,0-1.2-0.1-1.3c-0.1-0.2-0.5-0.3-1.2-0.3
		C86,57.3,85.6,57.3,85.5,57.5z"/>
</g>
<g>
	<g>
		<path class="st1" d="M52,21.9L52,21.9v-6.4l0,0c1.2,0,2.2,1,2.2,2.1v2.1C54.2,20.9,53.2,21.9,52,21.9z"/>
		<path class="st1" d="M76.3,21.9L76.3,21.9v-6.4l0,0c-1.2,0-2.2,1-2.2,2.1v2.1C74.1,20.9,75.1,21.9,76.3,21.9z"/>
		<g>
			<path class="st1" d="M78.5,21.9h-2.2v-6.4c0-5.3-4.4-9.6-9.9-9.6h-4.4c-5.5,0-9.9,4.3-9.9,9.6v6.4h-2.2v-6.4
				c0-6.5,5.4-11.7,12.1-11.7h4.4C73,3.7,78.5,9,78.5,15.5V21.9z"/>
		</g>
	</g>
	<g>
		<path class="st1" d="M64.1,29.7c-10.7-4.8-10-10.8-10-10.8c0-2.9,2.4-5.2,5.4-5.2c2,0,3.8,1.1,4.7,2.7c0.9-1.6,2.7-2.7,4.7-2.7
			c3,0,5.4,2.3,5.4,5.2C74.1,18.9,74.8,24.9,64.1,29.7"/>
		<path class="st0" d="M64.4,30.2l-0.3-0.6l-0.3,0.6c-11-4.9-10.4-11.2-10.4-11.4c0-3.1,2.7-5.7,6-5.7c1.9,0,3.6,0.8,4.7,2.2
			c1.1-1.4,2.9-2.2,4.7-2.2c3.3,0,6,2.6,6,5.8C74.8,19.1,75.3,25.3,64.4,30.2z M59.4,14.3c-2.6,0-4.7,2.1-4.7,4.6
			c0,0.1-0.4,5.6,9.4,10.1c9.8-4.5,9.4-10,9.4-10.1c0-2.6-2.1-4.6-4.7-4.6c-1.7,0-3.3,0.9-4.1,2.4c-0.2,0.4-0.9,0.4-1.1,0
			C62.7,15.2,61.1,14.3,59.4,14.3z"/>
	</g>
	<g>
		<path class="st1" d="M51.4,28c-1.4-0.3-2.7,0.7-2.7,2.1V35h1.1c2.4,0,4.4,1.9,4.4,4.3v1.1c0,2.4-2,4.3-4.4,4.3h-1.1v2.5
			c0,1,0.7,1.9,1.7,2.1l13.7,2.8V30.7L51.4,28z"/>
		<g>
			<path class="st1" d="M49.9,43.5h-2.3c-0.6,0-1.1-0.5-1.1-1.1v-5.3c0-0.6,0.5-1.1,1.1-1.1h2.3c1.8,0,3.2,1.4,3.2,3.2v1
				C53.1,42.1,51.7,43.5,49.9,43.5z"/>
			<path class="st0" d="M49.7,43.8h-2c-0.8,0-1.4-0.6-1.4-1.4v-5.3c0-0.8,0.6-1.4,1.4-1.4h2c2,0,3.7,1.6,3.7,3.6v0.8
				C53.4,42.2,51.7,43.8,49.7,43.8z M47.7,36.3c-0.5,0-0.9,0.4-0.9,0.8v5.3c0,0.5,0.4,0.8,0.9,0.8h2c1.7,0,3.2-1.4,3.2-3.1v-0.8
				c0-1.7-1.4-3.1-3.2-3.1H47.7z"/>
		</g>
		<path class="st1" d="M78.5,44.6c-2.4,0-4.4-1.9-4.4-4.3v-1.1c0-2.4,2-4.3,4.4-4.3h1.1v-4.8c0-1.4-1.3-2.4-2.7-2.1l-12.8,2.6v21.4
			l13.7-2.8c1-0.2,1.7-1.1,1.7-2.1v-2.5H78.5z"/>
		<g>
			<path class="st1" d="M78.4,43.5h2.3c0.6,0,1.1-0.5,1.1-1.1v-5.3c0-0.6-0.5-1.1-1.1-1.1h-2.3c-1.8,0-3.2,1.4-3.2,3.2v1
				C75.2,42.1,76.6,43.5,78.4,43.5z"/>
			<path class="st0" d="M80.6,43.8h-2c-2,0-3.7-1.6-3.7-3.6v-0.8c0-2,1.7-3.6,3.7-3.6h2c0.8,0,1.4,0.6,1.4,1.4v5.3
				C82,43.2,81.4,43.8,80.6,43.8z M78.6,36.3c-1.7,0-3.2,1.4-3.2,3.1v0.8c0,1.7,1.4,3.1,3.2,3.1h2c0.5,0,0.9-0.4,0.9-0.8v-5.3
				c0-0.5-0.4-0.8-0.9-0.8H78.6z"/>
		</g>
	</g>
	<rect x="63.3" y="30" class="st0" width="1.6" height="23.7"/>
</g>
</svg>
