<?xml version="1.0" encoding="utf-8"?>
<!-- Generator: Adobe Illustrator 24.3.0, SVG Export Plug-In . SVG Version: 6.00 Build 0)  -->
<svg version="1.1" id="Laag_1" xmlns="http://www.w3.org/2000/svg" xmlns:xlink="http://www.w3.org/1999/xlink" x="0px" y="0px"
	 viewBox="0 0 127.6 68" style="enable-background:new 0 0 127.6 68;" xml:space="preserve">
<style type="text/css">
	.st0{fill:#189CD9;}
	.st1{fill:#FFFFFF;stroke:#FFFFFF;stroke-miterlimit:10;}
	.st2{fill:#FFFFFF;}
</style>
<g>
	<g>
		<path class="st0" d="M127.6,59.6c0,4.7-3.8,8.4-8.6,8.4H8.6C3.8,68,0,64.3,0,59.6V8.4C0,3.8,3.8,0,8.6,0H119
			c4.8,0,8.6,3.8,8.6,8.4V59.6z"/>
	</g>
</g>
<g>
	<g>
		<path class="st1" d="M64.6,11.6c2.1,0,4.1,0.4,6.1,1.2c1.9,0.8,3.5,1.9,5,3.3c1.4,1.4,2.6,3.1,3.3,5c0.8,1.9,1.2,4,1.2,6.1
			c0,2.8-0.8,5.6-2.2,8l-0.5,0.9l0.3,1l1.3,4.6l-4.6-1.3l-1-0.3l-0.9,0.5c-2.4,1.5-5.2,2.2-8,2.2c-2.1,0-4.1-0.4-6.1-1.2
			c-1.9-0.8-3.5-1.9-5-3.3c-1.4-1.4-2.6-3.1-3.3-5c-0.8-1.9-1.2-4-1.2-6.1s0.4-4.1,1.2-6.1c0.8-1.9,1.9-3.5,3.3-5
			c1.4-1.4,3.1-2.6,5-3.3C60.4,12.1,62.5,11.6,64.6,11.6 M64.6,9.3c-9.9,0-17.9,8-17.9,17.9s8,17.9,17.9,17.9c3.4,0,6.5-0.9,9.2-2.6
			l6.5,1.9c0.1,0,0.2,0,0.3,0c0.8,0,1.4-0.8,1.2-1.6L80,36.5c1.6-2.7,2.6-5.8,2.6-9.2C82.5,17.3,74.5,9.3,64.6,9.3L64.6,9.3z"/>
	</g>
	<g>
		<path class="st2" d="M67.1,19.6h-4.5v-4.5h4.5V19.6z M67.1,38.7h-4.5V23.1h4.5V38.7z"/>
	</g>
</g>
<g>
	<path class="st2" d="M10.7,61.2H9.4V53h3.7c0.9,0,1.4,0.3,1.7,0.8c0.2,0.3,0.2,0.8,0.2,1.6V56c0,0.8-0.1,1.3-0.2,1.6
		c-0.3,0.6-0.9,0.8-1.7,0.8h-2.4V61.2z M10.7,57h2.4c0.3,0,0.5,0,0.6-0.1s0.1-0.4,0.1-1v-0.6c0-0.5,0-0.9-0.1-1s-0.2-0.1-0.6-0.1
		h-2.4V57z"/>
	<path class="st2" d="M18.4,56.4c-0.7,0-1.1,0.1-1.2,0.3c-0.1,0.1-0.1,0.6-0.1,1.3v3.1h-1.3V58c0-1,0.1-1.7,0.4-2.1
		c0.4-0.6,1.1-0.8,2.3-0.8h0.9v1.3L18.4,56.4L18.4,56.4z"/>
	<path class="st2" d="M25.2,61.2h-1.3v-0.5c-0.3,0.4-0.7,0.6-1.3,0.6c-1.1,0-1.9-0.3-2.3-0.8c-0.2-0.4-0.4-1-0.4-2.1v-0.3
		c0-1,0.1-1.7,0.4-2.1c0.4-0.6,1.1-0.8,2.3-0.8s1.9,0.3,2.3,0.8c0.2,0.3,0.3,0.8,0.3,1.5l0,0V61.2z M21.4,56.7
		c-0.1,0.1-0.1,0.6-0.1,1.3v0.3c0,0.8,0,1.2,0.1,1.3c0.1,0.2,0.5,0.3,1.2,0.3s1.1-0.1,1.2-0.3c0.1-0.1,0.1-0.5,0.1-1.2v-0.6
		c0-0.7,0-1.1-0.1-1.2c-0.1-0.2-0.5-0.3-1.2-0.3C21.9,56.4,21.5,56.5,21.4,56.7z"/>
	<path class="st2" d="M27.7,59.1v2.1h-1.3V53h1.3v4.6l2.2-2l0.3-0.3h1.7l-0.5,0.5l-0.6,0.6l-1.1,1h0.1c0.7,0.1,1.2,0.4,1.4,0.8
		s0.4,1,0.4,2.1v1.1h-1.3v-1.1c0-0.8,0-1.3-0.1-1.4c-0.3-0.3-0.9-0.4-1.6-0.4L27.7,59.1z"/>
	<path class="st2" d="M36.1,56.5h-1.9v1.7c0,0.8,0,1.2,0.1,1.4c0.1,0.2,0.5,0.3,1.2,0.3h0.6v1.3h-0.6c-1.1,0-1.9-0.3-2.3-0.8
		c-0.2-0.4-0.4-1-0.4-2.1V53h1.3v2.3H36L36.1,56.5L36.1,56.5z"/>
	<path class="st2" d="M38.4,54.2h-1.3v-1.3h1.3V54.2z M38.4,61.2h-1.3v-5.9h1.3V61.2z"/>
	<path class="st2" d="M40.2,60.9c-0.2-0.2-0.4-0.4-0.4-0.7c0-0.2-0.1-0.4-0.1-0.7l0,0H41l0,0c0,0.3,0,0.4,0,0.5
		c0.2,0.1,0.6,0.2,1.3,0.2s1.1-0.1,1.3-0.2c0,0,0-0.2,0-0.3v-0.4c0-0.2,0-0.3,0-0.3c-0.2-0.1-0.6-0.1-1.3-0.1c-1,0-1.7-0.1-2.1-0.4
		c-0.2-0.2-0.4-0.4-0.4-0.7c0-0.2-0.1-0.4-0.1-0.7V57c0-0.7,0.2-1.1,0.5-1.4c0.4-0.3,1.1-0.4,2.1-0.4s1.8,0.1,2.1,0.4
		c0.2,0.2,0.4,0.4,0.4,0.7c0,0.2,0.1,0.4,0.1,0.7l0,0h-1.3v-0.4c-0.2-0.1-0.6-0.2-1.3-0.2s-1.1,0.1-1.3,0.2c0,0.1,0,0.2,0,0.4v0.3
		c0,0.2,0,0.3,0,0.3c0.2,0.1,0.6,0.1,1.3,0.1c1,0,1.8,0.1,2.1,0.4c0.2,0.2,0.4,0.4,0.4,0.7c0,0.2,0.1,0.4,0.1,0.7v0.1
		c0,0.7-0.2,1.1-0.5,1.4c-0.4,0.3-1.1,0.4-2.1,0.4C41.3,61.3,40.6,61.1,40.2,60.9z"/>
	<path class="st2" d="M46.4,60.4c-0.2-0.4-0.4-1-0.4-2.1V58c0-1,0.1-1.7,0.4-2.1c0.4-0.6,1.1-0.8,2.3-0.8c0.7,0,1.3,0.1,1.6,0.3
		c0.5,0.3,0.8,0.7,0.9,1.4L49.9,57c0-0.2-0.1-0.4-0.2-0.4c-0.2-0.1-0.5-0.2-1.1-0.2c-0.7,0-1.1,0.1-1.2,0.3
		c-0.1,0.1-0.1,0.6-0.1,1.3v0.3c0,0.8,0,1.2,0.1,1.3c0.1,0.2,0.5,0.3,1.2,0.3c0.5,0,0.9-0.1,1.1-0.2c0.1-0.1,0.2-0.2,0.2-0.4
		l1.3,0.2c-0.1,0.7-0.4,1.2-0.9,1.4c-0.4,0.2-0.9,0.3-1.6,0.3C47.5,61.3,46.8,61,46.4,60.4z"/>
	<path class="st2" d="M53.5,61.2h-1.3V53h1.3v2.7c0.3-0.3,0.7-0.5,1.3-0.5c1.1,0,1.9,0.3,2.3,0.8c0.2,0.4,0.4,1,0.4,2.1v3.1h-1.3
		v-3.1c0-0.8,0-1.2-0.1-1.3c-0.1-0.2-0.5-0.3-1.2-0.3s-1.1,0.1-1.2,0.3c-0.1,0.1-0.1,0.6-0.1,1.4L53.5,61.2L53.5,61.2z"/>
	<path class="st2" d="M58.8,60.4c-0.2-0.4-0.4-1-0.4-2.1V58c0-1,0.1-1.7,0.4-2.1c0.4-0.6,1.1-0.8,2.3-0.8s1.9,0.3,2.3,0.8
		c0.2,0.4,0.3,1.1,0.3,2.2v0.6h-3.9c0,0.5,0.1,0.8,0.1,1c0.1,0.2,0.5,0.3,1.2,0.3c0.5,0,0.9,0,1-0.2c0.1-0.1,0.2-0.2,0.2-0.3
		l1.3,0.2c-0.1,0.6-0.4,1-1,1.3c-0.4,0.2-0.9,0.3-1.6,0.3C59.9,61.3,59.2,61,58.8,60.4z M62.4,57.6c0-0.5-0.1-0.8-0.1-1
		c-0.1-0.2-0.5-0.3-1.2-0.3s-1.1,0.1-1.2,0.3c-0.1,0.1-0.1,0.4-0.1,1H62.4z"/>
	<path class="st2" d="M69.3,54.2H68v-1.3h1.3V54.2z M69.3,61.2H68v-5.9h1.3V61.2z"/>
	<path class="st2" d="M75.9,61.2h-1.3v-3.1c0-0.8,0-1.2-0.1-1.4c-0.1-0.2-0.5-0.3-1.2-0.3s-1.1,0.1-1.2,0.3C72,56.8,72,57.3,72,58.1
		v3.1h-1.3v-3.1c0-1,0.1-1.7,0.4-2.1c0.4-0.6,1.1-0.8,2.3-0.8s1.9,0.3,2.3,0.8c0.2,0.4,0.3,1,0.3,2.1L75.9,61.2L75.9,61.2z"/>
	<path class="st2" d="M79.6,54.1c-0.7,0-1.1,0.1-1.2,0.3c-0.1,0.1-0.1,0.6-0.1,1.3l0,0h2V57h-2v4.1H77v-5.4c0-1,0.1-1.7,0.4-2.1
		c0.4-0.6,1.1-0.8,2.3-0.8h1v1.3L79.6,54.1L79.6,54.1z"/>
	<path class="st2" d="M81.5,60.4c-0.2-0.4-0.4-1-0.4-2.1V58c0-1,0.1-1.7,0.4-2.1c0.4-0.6,1.1-0.8,2.3-0.8s1.9,0.3,2.3,0.8
		c0.2,0.4,0.4,1,0.4,2.1v0.3c0,1-0.1,1.7-0.4,2.1c-0.4,0.6-1.1,0.8-2.3,0.8S81.9,61,81.5,60.4z M82.6,56.7c-0.1,0.1-0.1,0.6-0.1,1.4
		v0.3c0,0.8,0,1.2,0.1,1.4c0.1,0.2,0.5,0.3,1.2,0.3s1.1-0.1,1.2-0.3c0.1-0.1,0.1-0.6,0.1-1.3v-0.3c0-0.8,0-1.2-0.1-1.3
		c-0.1-0.2-0.5-0.3-1.2-0.3C83.1,56.4,82.7,56.5,82.6,56.7z"/>
	<path class="st2" d="M90.1,56.4c-0.7,0-1.1,0.1-1.2,0.3c-0.1,0.1-0.1,0.6-0.1,1.3v3.1h-1.3V58c0-1,0.1-1.7,0.4-2.1
		c0.4-0.6,1.1-0.8,2.3-0.8h0.9v1.3L90.1,56.4L90.1,56.4z"/>
	<path class="st2" d="M99.9,61.2h-1.3v-3.1c0-0.8,0-1.2-0.1-1.4c-0.1-0.2-0.4-0.2-1-0.2s-0.9,0.1-1,0.2s-0.1,0.6-0.1,1.4v3.1h-1.3
		v-3.1c0-0.8,0-1.2-0.1-1.4c-0.1-0.2-0.4-0.2-1-0.2s-0.9,0.1-1,0.2s-0.1,0.6-0.1,1.4v3.1h-1.3v-3.1c0-1,0.1-1.7,0.3-2
		c0.2-0.3,0.4-0.5,0.8-0.6c0.3-0.2,0.7-0.2,1.1-0.2s0.8,0.1,1.1,0.2c0.4,0.2,0.6,0.4,0.8,0.7l0,0l0,0c0.4-0.6,1-0.9,1.9-0.9
		c0.4,0,0.8,0.1,1.1,0.2c0.4,0.2,0.6,0.4,0.8,0.6c0.2,0.3,0.3,1,0.3,2v3.1H99.9z"/>
	<path class="st2" d="M106.2,61.2h-1.3v-0.5c-0.3,0.4-0.7,0.6-1.3,0.6c-1.1,0-1.9-0.3-2.3-0.8c-0.2-0.4-0.4-1-0.4-2.1v-0.3
		c0-1,0.1-1.7,0.4-2.1c0.4-0.6,1.1-0.8,2.3-0.8s1.9,0.3,2.3,0.8c0.2,0.3,0.3,0.8,0.3,1.5l0,0V61.2z M102.4,56.7
		c-0.1,0.1-0.1,0.6-0.1,1.3v0.3c0,0.8,0,1.2,0.1,1.3c0.1,0.2,0.5,0.3,1.2,0.3s1.1-0.1,1.2-0.3c0.1-0.1,0.1-0.5,0.1-1.2v-0.6
		c0-0.7,0-1.1-0.1-1.2c-0.1-0.2-0.5-0.3-1.2-0.3C102.9,56.4,102.5,56.5,102.4,56.7z"/>
	<path class="st2" d="M110.6,56.5h-1.9v1.7c0,0.8,0,1.2,0.1,1.4c0.1,0.2,0.5,0.3,1.2,0.3h0.6v1.3H110c-1.1,0-1.9-0.3-2.3-0.8
		c-0.2-0.4-0.4-1-0.4-2.1V53h1.3v2.3h1.9L110.6,56.5L110.6,56.5z"/>
	<path class="st2" d="M112.8,54.2h-1.3v-1.3h1.3V54.2z M112.8,61.2h-1.3v-5.9h1.3V61.2z"/>
	<path class="st2" d="M114.5,60.4c-0.2-0.4-0.4-1-0.4-2.1V58c0-1,0.1-1.7,0.4-2.1c0.4-0.6,1.1-0.8,2.3-0.8s1.9,0.3,2.3,0.8
		c0.2,0.4,0.3,1.1,0.3,2.2v0.6h-3.9c0,0.5,0.1,0.8,0.1,1c0.1,0.2,0.5,0.3,1.2,0.3c0.5,0,0.9,0,1-0.2c0.1-0.1,0.2-0.2,0.2-0.3
		l1.3,0.2c-0.1,0.6-0.4,1-1,1.3c-0.4,0.2-0.9,0.3-1.6,0.3C115.7,61.3,114.9,61,114.5,60.4z M118.1,57.6c0-0.5-0.1-0.8-0.1-1
		c-0.1-0.2-0.5-0.3-1.2-0.3s-1.1,0.1-1.2,0.3c-0.1,0.1-0.1,0.4-0.1,1H118.1z"/>
</g>
</svg>
