<?xml version="1.0" encoding="utf-8"?>
<!-- Generator: Adobe Illustrator 24.3.0, SVG Export Plug-In . SVG Version: 6.00 Build 0)  -->
<svg version="1.1" id="Laag_1" xmlns="http://www.w3.org/2000/svg" xmlns:xlink="http://www.w3.org/1999/xlink" x="0px" y="0px"
	 viewBox="0 0 127.6 68" style="enable-background:new 0 0 127.6 68;" xml:space="preserve">
<style type="text/css">
	.st0{fill:#7AAB2B;}
	.st1{fill:#FFFFFF;}
</style>
<g>
	<g>
		<path class="st0" d="M127.5,59.7c0,4.7-3.8,8.4-8.6,8.4H8.6c-4.8,0-8.6-3.8-8.6-8.4V8.5c0-4.7,3.8-8.4,8.6-8.4h110.4
			c4.8,0,8.6,3.8,8.6,8.4V59.7z"/>
	</g>
</g>
<path class="st1" d="M55.7,46c8.1,3.8,16.9,1.3,21.7-3.8l-3-3c-3.2,3.1-7.1,4.6-11.5,4.3c-3.5-0.2-6.5-1.6-9.1-3.9
	c-2.6-2.3-4.1-5.5-4.6-8.8h8.3c0.7,0,1.4-0.5,1.6-1.2l2.2-6.5l4,14.7c0.2,0.7,0.8,1.2,1.6,1.3l0.1,0c0.7,0,1.4-0.4,1.6-1.1l2.6-7H75
	c2,2,4,4,6,6c2.8-2.7,5.6-5.5,8.4-8.3c0,0-0.1-0.1-0.1-0.1c-2,0-4,0-6,0c-0.1-0.1-0.2-0.2-0.3-0.3c-0.2-5.8-2.5-10.7-6.9-14.4
	c-3.3-2.8-7.1-4.2-11.4-4.4C55.1,9,47.3,15.5,45.2,24C42.9,33.4,47.7,42.2,55.7,46z M78.8,27.9h-8.5c-0.7,0-1.4,0.4-1.6,1.1
	l-1.5,3.9l-4.1-15c-0.2-0.7-0.9-1.3-1.6-1.3c-0.8,0-1.4,0.4-1.7,1.2l-3.4,9.9H49c0.1-2.2,0.7-4.3,1.8-6.3c3.4-6.1,10.5-9.1,17.2-7.1
	C74.4,16.1,78.5,21.8,78.8,27.9z"/>
<g>
	<path class="st1" d="M26.9,61.8h-1.3v-8.2h1.1l3,6.5l3-6.5h1.2v8.2h-1.3v-5l-2.3,5h-1.1l-2.3-5V61.8z"/>
	<path class="st1" d="M35.2,61.1c-0.2-0.4-0.4-1-0.4-2.1v-0.3c0-1,0.1-1.7,0.4-2.1c0.4-0.6,1.1-0.8,2.3-0.8s1.9,0.3,2.3,0.8
		c0.2,0.4,0.3,1.1,0.3,2.2v0.6h-3.9c0,0.5,0.1,0.8,0.1,1c0.1,0.2,0.5,0.3,1.2,0.3c0.5,0,0.9-0.1,1-0.2c0.1-0.1,0.2-0.2,0.2-0.3
		l1.3,0.2c-0.1,0.6-0.4,1-1,1.3c-0.4,0.2-0.9,0.3-1.6,0.3C36.3,61.9,35.6,61.7,35.2,61.1z M38.8,58.3c0-0.5-0.1-0.8-0.1-1
		c-0.1-0.2-0.5-0.3-1.2-0.3c-0.7,0-1.1,0.1-1.2,0.3c-0.1,0.1-0.1,0.4-0.1,1H38.8z"/>
	<path class="st1" d="M46.4,61.8h-1.3v-0.5c-0.3,0.4-0.7,0.6-1.3,0.6c-1.1,0-1.9-0.3-2.3-0.8c-0.2-0.4-0.4-1-0.4-2.1v-0.3
		c0-1,0.1-1.7,0.4-2.1c0.4-0.6,1.1-0.8,2.3-0.8s1.9,0.3,2.3,0.8c0.2,0.3,0.3,0.8,0.3,1.5h0V61.8z M42.6,57.4
		c-0.1,0.1-0.1,0.6-0.1,1.3V59c0,0.8,0,1.2,0.1,1.3c0.1,0.2,0.5,0.3,1.2,0.3c0.7,0,1.1-0.1,1.2-0.3c0.1-0.1,0.1-0.5,0.1-1.2v-0.6
		c0-0.7,0-1.1-0.1-1.2c-0.1-0.2-0.5-0.3-1.2-0.3C43.1,57.1,42.7,57.2,42.6,57.4z"/>
	<path class="st1" d="M48,61.5c-0.2-0.2-0.4-0.4-0.4-0.7c0-0.2-0.1-0.4-0.1-0.7v0h1.3v0c0,0.3,0,0.4,0,0.5c0.2,0.1,0.6,0.2,1.3,0.2
		c0.7,0,1.1-0.1,1.3-0.2c0-0.1,0-0.2,0-0.3v-0.4c0-0.2,0-0.3,0-0.3c-0.2-0.1-0.6-0.1-1.3-0.1c-1,0-1.7-0.1-2.1-0.4
		c-0.2-0.2-0.4-0.4-0.4-0.7c0-0.2-0.1-0.4-0.1-0.7v-0.1c0-0.7,0.2-1.1,0.5-1.4c0.4-0.3,1.1-0.4,2.1-0.4c1,0,1.8,0.1,2.1,0.4
		c0.2,0.2,0.4,0.4,0.4,0.7c0,0.2,0.1,0.4,0.1,0.7v0h-1.3v-0.4c-0.2-0.1-0.6-0.2-1.3-0.2c-0.7,0-1.1,0.1-1.3,0.2c0,0.1,0,0.2,0,0.4
		v0.3c0,0.2,0,0.3,0,0.3c0.2,0.1,0.6,0.1,1.3,0.1c1,0,1.8,0.1,2.1,0.4c0.2,0.2,0.4,0.4,0.4,0.7c0,0.2,0.1,0.4,0.1,0.7v0.1
		c0,0.7-0.2,1.1-0.5,1.4c-0.4,0.3-1.1,0.4-2.1,0.4C49,61.9,48.3,61.8,48,61.5z"/>
	<path class="st1" d="M54.1,61.1c-0.2-0.4-0.4-1-0.4-2.1v-3.1h1.3V59c0,0.8,0,1.2,0.1,1.4c0.1,0.2,0.5,0.3,1.2,0.3
		c0.7,0,1.1-0.1,1.2-0.3c0.1-0.1,0.1-0.6,0.1-1.4v-3.1H59V59c0,1-0.1,1.7-0.3,2.1c-0.4,0.6-1.1,0.8-2.3,0.8S54.5,61.7,54.1,61.1z"/>
	<path class="st1" d="M62.7,57.1c-0.7,0-1.1,0.1-1.2,0.3c-0.1,0.1-0.1,0.6-0.1,1.3v3.1H60v-3.1c0-1,0.1-1.7,0.4-2.1
		c0.4-0.6,1.1-0.8,2.3-0.8h0.9v1.3H62.7z"/>
	<path class="st1" d="M64.5,61.1c-0.2-0.4-0.4-1-0.4-2.1v-0.3c0-1,0.1-1.7,0.4-2.1c0.4-0.6,1.1-0.8,2.3-0.8s1.9,0.3,2.3,0.8
		c0.2,0.4,0.3,1.1,0.3,2.2v0.6h-3.9c0,0.5,0.1,0.8,0.1,1c0.1,0.2,0.5,0.3,1.2,0.3c0.5,0,0.9-0.1,1-0.2c0.1-0.1,0.2-0.2,0.2-0.3
		l1.3,0.2c-0.1,0.6-0.4,1-1,1.3c-0.4,0.2-0.9,0.3-1.6,0.3C65.6,61.9,64.9,61.7,64.5,61.1z M68.1,58.3c0-0.5-0.1-0.8-0.1-1
		c-0.1-0.2-0.5-0.3-1.2-0.3c-0.7,0-1.1,0.1-1.2,0.3c-0.1,0.1-0.1,0.4-0.1,1H68.1z"/>
	<path class="st1" d="M78.8,61.8h-1.3v-3.1c0-0.8,0-1.2-0.1-1.4c-0.1-0.2-0.4-0.2-1-0.2s-0.9,0.1-1,0.2c-0.1,0.1-0.1,0.6-0.1,1.4
		v3.1H74v-3.1c0-0.8,0-1.2-0.1-1.4c-0.1-0.2-0.4-0.2-1-0.2s-0.9,0.1-1,0.2c-0.1,0.1-0.1,0.6-0.1,1.4v3.1h-1.3v-3.1
		c0-1,0.1-1.7,0.3-2c0.2-0.3,0.4-0.5,0.8-0.6c0.3-0.2,0.7-0.2,1.1-0.2c0.4,0,0.8,0.1,1.1,0.2c0.4,0.2,0.6,0.4,0.8,0.7c0,0,0,0,0,0
		c0,0,0,0,0,0c0.4-0.6,1-0.9,1.9-0.9c0.4,0,0.8,0.1,1.1,0.2c0.4,0.2,0.6,0.4,0.8,0.6c0.2,0.3,0.3,1,0.3,2V61.8z"/>
	<path class="st1" d="M80.2,61.1c-0.2-0.4-0.4-1-0.4-2.1v-0.3c0-1,0.1-1.7,0.4-2.1c0.4-0.6,1.1-0.8,2.3-0.8s1.9,0.3,2.3,0.8
		c0.2,0.4,0.3,1.1,0.3,2.2v0.6h-3.9c0,0.5,0.1,0.8,0.1,1c0.1,0.2,0.5,0.3,1.2,0.3c0.5,0,0.9-0.1,1-0.2c0.1-0.1,0.2-0.2,0.2-0.3
		l1.3,0.2c-0.1,0.6-0.4,1-1,1.3c-0.4,0.2-0.9,0.3-1.6,0.3C81.3,61.9,80.6,61.7,80.2,61.1z M83.7,58.3c0-0.5-0.1-0.8-0.1-1
		c-0.1-0.2-0.5-0.3-1.2-0.3c-0.7,0-1.1,0.1-1.2,0.3c-0.1,0.1-0.1,0.4-0.1,1H83.7z"/>
	<path class="st1" d="M91.3,61.8H90v-3.1c0-0.8,0-1.2-0.1-1.4c-0.1-0.2-0.5-0.3-1.2-0.3c-0.7,0-1.1,0.1-1.2,0.3
		c-0.1,0.1-0.1,0.6-0.1,1.4v3.1h-1.3v-3.1c0-1,0.1-1.7,0.4-2.1c0.4-0.6,1.1-0.8,2.3-0.8s1.9,0.3,2.3,0.8c0.2,0.4,0.3,1,0.3,2.1V61.8
		z"/>
	<path class="st1" d="M95.7,57.2h-1.9v1.7c0,0.8,0,1.2,0.1,1.4c0.1,0.2,0.5,0.3,1.2,0.3h0.6v1.3h-0.6c-1.1,0-1.9-0.3-2.3-0.8
		c-0.2-0.4-0.4-1-0.4-2.1v-5.3h1.3v2.3h1.9V57.2z"/>
	<path class="st1" d="M96.9,61.5c-0.2-0.2-0.4-0.4-0.4-0.7c0-0.2-0.1-0.4-0.1-0.7v0h1.3v0c0,0.3,0,0.4,0,0.5
		c0.2,0.1,0.6,0.2,1.3,0.2c0.7,0,1.1-0.1,1.3-0.2c0-0.1,0-0.2,0-0.3v-0.4c0-0.2,0-0.3,0-0.3c-0.2-0.1-0.6-0.1-1.3-0.1
		c-1,0-1.7-0.1-2.1-0.4c-0.2-0.2-0.4-0.4-0.4-0.7c0-0.2-0.1-0.4-0.1-0.7v-0.1c0-0.7,0.2-1.1,0.5-1.4c0.4-0.3,1.1-0.4,2.1-0.4
		c1,0,1.8,0.1,2.1,0.4c0.2,0.2,0.4,0.4,0.4,0.7c0,0.2,0.1,0.4,0.1,0.7v0h-1.3v-0.4c-0.2-0.1-0.6-0.2-1.3-0.2c-0.7,0-1.1,0.1-1.3,0.2
		c0,0.1,0,0.2,0,0.4v0.3c0,0.2,0,0.3,0,0.3c0.2,0.1,0.6,0.1,1.3,0.1c1,0,1.8,0.1,2.1,0.4c0.2,0.2,0.4,0.4,0.4,0.7
		c0,0.2,0.1,0.4,0.1,0.7v0.1c0,0.7-0.2,1.1-0.5,1.4c-0.4,0.3-1.1,0.4-2.1,0.4C98,61.9,97.3,61.8,96.9,61.5z"/>
</g>
</svg>
